<?xml version="1.0" encoding="iso-8859-1"?>
<!-- Uploaded to: SVG Repo, www.svgrepo.com, Generator: SVG Repo Mixer Tools -->
<!DOCTYPE svg PUBLIC "-//W3C//DTD SVG 1.1//EN" "http://www.w3.org/Graphics/SVG/1.1/DTD/svg11.dtd">
<svg fill="#000000" height="800px" width="800px" version="1.1" id="Capa_1" xmlns="http://www.w3.org/2000/svg" xmlns:xlink="http://www.w3.org/1999/xlink" 
	 viewBox="0 0 457.581 457.581" xml:space="preserve">
<g>
	<path d="M248.945,219.752h-40.309c-7.956,0-14.428,6.472-14.428,14.428c0,4.887,3.976,8.863,8.863,8.863h6.6
		c-4.807,4.862-7.781,11.54-7.781,18.901c0,14.833,12.068,26.901,26.901,26.901c14.833,0,26.901-12.068,26.901-26.901
		c0-7.361-2.974-14.039-7.781-18.901h6.6c4.887,0,8.863-3.976,8.863-8.863C263.373,226.224,256.9,219.752,248.945,219.752z
		 M221.634,235.043v-7.291h14.313v7.291H221.634z M202.207,234.18c0-3.544,2.884-6.428,6.428-6.428h4.998v7.291h-10.563
		C202.595,235.043,202.207,234.656,202.207,234.18z M247.691,261.945c0,10.422-8.479,18.901-18.901,18.901
		c-10.422,0-18.901-8.479-18.901-18.901c0-10.422,8.479-18.901,18.901-18.901C239.212,243.043,247.691,251.522,247.691,261.945z
		 M254.51,235.043h-10.563v-7.291h4.999c3.544,0,6.428,2.884,6.428,6.428C255.373,234.656,254.985,235.043,254.51,235.043z"/>
	<path d="M120.232,272.998c-7.743,0-14.042,6.299-14.042,14.042c0,7.743,6.299,14.042,14.042,14.042
		c7.743,0,14.042-6.299,14.042-14.042C134.274,279.297,127.975,272.998,120.232,272.998z M120.232,293.082
		c-3.331,0-6.042-2.71-6.042-6.042c0-3.331,2.711-6.042,6.042-6.042c3.332,0,6.041,2.711,6.041,6.042
		C126.274,290.372,123.564,293.082,120.232,293.082z"/>
	<path d="M457.259,223.989c-0.866-2.032-3.217-2.977-5.249-2.11c-54.418,23.212-111.928,37.834-171.014,43.544
		c2.206-5.984,3.414-12.448,3.414-19.189c0-0.683-0.027-1.359-0.052-2.036c12.214-2.68,24.264-6.171,35.855-10.411
		c2.075-0.759,3.142-3.056,2.382-5.131c-0.758-2.075-3.056-3.142-5.13-2.382c-10.988,4.02-22.404,7.348-33.98,9.926
		c-4.505-24.614-25.255-43.608-50.696-45.426v-45.692c0-2.209-1.791-4-4-4c-2.209,0-4,1.791-4,4v45.692
		c-25.44,1.819-46.19,20.812-50.695,45.426c-11.593-2.582-23.007-5.91-33.976-9.925c-2.073-0.76-4.372,0.307-5.131,2.381
		c-0.759,2.075,0.307,4.372,2.381,5.131c11.57,4.236,23.62,7.727,35.853,10.411c-0.024,0.677-0.052,1.353-0.052,2.036
		c0,6.741,1.207,13.204,3.414,19.189c-59.087-5.71-116.597-20.332-171.014-43.544c-2.032-0.867-4.382,0.078-5.248,2.11
		c-0.867,2.032,0.078,4.382,2.11,5.249c6.8,2.9,13.648,5.668,20.539,8.304l-1.652,4.235c-0.803,2.058,0.215,4.377,2.273,5.18
		c0.478,0.186,0.969,0.274,1.453,0.274c1.6,0,3.111-0.967,3.728-2.547l1.693-4.339c12.708,4.662,25.564,8.872,38.548,12.634
		l-1.493,3.826c-0.803,2.058,0.215,4.377,2.273,5.18c0.478,0.186,0.969,0.274,1.453,0.274c1.6,0,3.111-0.967,3.728-2.547
		l1.774-4.548c9.221,2.535,18.506,4.842,27.846,6.922c-8.295,5.217-13.82,14.451-13.82,24.953c0,16.243,13.215,29.458,29.458,29.458
		c16.243,0,29.458-13.215,29.458-29.458c0-6.608-2.196-12.709-5.884-17.629c12.171,1.852,24.417,3.342,36.732,4.433
		c9.603,16.718,27.628,28.01,48.252,28.01c20.623,0,38.646-11.29,48.25-28.006c12.306-1.09,24.545-2.561,36.707-4.411
		c-3.674,4.915-5.853,11.009-5.853,17.604c0,16.243,13.215,29.458,29.458,29.458c16.243,0,29.458-13.215,29.458-29.458
		c0-10.507-5.539-19.731-13.84-24.947c9.348-2.081,18.639-4.39,27.867-6.927l1.774,4.546c0.617,1.58,2.127,2.547,3.727,2.547
		c0.483,0,0.975-0.088,1.453-0.274c2.058-0.803,3.076-3.122,2.273-5.18l-1.492-3.825c12.984-3.763,25.839-7.975,38.547-12.637
		l1.693,4.341c0.617,1.581,2.128,2.547,3.728,2.547c0.483,0,0.975-0.088,1.453-0.274c2.058-0.803,3.076-3.122,2.273-5.18
		l-1.653-4.237c6.891-2.636,13.738-5.402,20.537-8.302C457.181,228.371,458.125,226.021,457.259,223.989z M120.232,308.498
		c-11.832,0-21.458-9.626-21.458-21.458c0-11.832,9.626-21.458,21.458-21.458c11.832,0,21.458,9.626,21.458,21.458
		C141.69,298.872,132.064,308.498,120.232,308.498z M228.79,293.854c-26.257,0-47.619-21.362-47.619-47.619
		c0-26.257,21.362-47.619,47.619-47.619c26.257,0,47.62,21.362,47.62,47.619C276.41,272.492,255.047,293.854,228.79,293.854z
		 M358.81,287.04c0,11.832-9.626,21.458-21.458,21.458c-11.832,0-21.458-9.626-21.458-21.458c0-11.832,9.626-21.458,21.458-21.458
		C349.184,265.582,358.81,275.208,358.81,287.04z"/>
	<path d="M337.352,272.998c-7.743,0-14.042,6.299-14.042,14.042c0,7.743,6.299,14.042,14.042,14.042
		c7.743,0,14.042-6.299,14.042-14.042C351.394,279.297,345.095,272.998,337.352,272.998z M337.352,293.082
		c-3.332,0-6.042-2.71-6.042-6.042c0-3.331,2.71-6.042,6.042-6.042c3.331,0,6.042,2.711,6.042,6.042
		C343.394,290.372,340.684,293.082,337.352,293.082z"/>
</g>
</svg>